HIERARCHY
ROOT Hips
{
	OFFSET 0.000000 89.005402 0.000000
	CHANNELS 6 Xposition Yposition Zposition Xrotation Yrotation Zrotation
	JOINT Spine
	{
		OFFSET 0.116900 10.681000 0.373400
		CHANNELS 3 Xrotation Yrotation Zrotation
		JOINT Spine1
		{
			OFFSET 0.000000 13.840401 0.053500
			CHANNELS 3 Xrotation Yrotation Zrotation
			JOINT Spine2
			{
				OFFSET 0.000000 14.712700 -0.366200
				CHANNELS 3 Xrotation Yrotation Zrotation
				JOINT Neck
				{
					OFFSET 0.000000 35.415497 -3.314200
					CHANNELS 3 Xrotation Yrotation Zrotation
					JOINT Head
					{
						OFFSET 0.000000 16.899200 1.218300
						CHANNELS 3 Xrotation Yrotation Zrotation
						JOINT HeadTop_End
						{
							OFFSET 0.000000 22.206207 2.192500
							CHANNELS 3 Xrotation Yrotation Zrotation
							End Site
							{
								OFFSET 0.000000 22.314178 0.000000
							}
						}
					}
				}
				JOINT LeftShoulder
				{
					OFFSET 12.896400 26.716293 -4.548400
					CHANNELS 3 Xrotation Yrotation Zrotation
					JOINT LeftArm
					{
						OFFSET 19.027000 -4.857010 -1.718400
						CHANNELS 3 Xrotation Yrotation Zrotation
						JOINT LeftForeArm
						{
							OFFSET 24.179897 0.000000 0.000000
							CHANNELS 3 Xrotation Yrotation Zrotation
							JOINT LeftHand
							{
								OFFSET 27.156403 0.000000 0.000000
								CHANNELS 3 Xrotation Yrotation Zrotation
								JOINT LeftHandIndex1
								{
									OFFSET 16.441200 0.000000 0.000000
									CHANNELS 3 Xrotation Yrotation Zrotation
									JOINT LeftHandIndex2
									{
										OFFSET 4.821899 0.000000 0.000000
										CHANNELS 3 Xrotation Yrotation Zrotation
										JOINT LeftHandIndex3
										{
											OFFSET 6.386497 0.000000 0.000000
											CHANNELS 3 Xrotation Yrotation Zrotation
											JOINT LeftHandIndex4
											{
												OFFSET 5.188988 0.000000 0.000000
												CHANNELS 3 Xrotation Yrotation Zrotation
												End Site
												{
													OFFSET -0.178703 5.185913 0.000177
												}
											}
										}
									}
								}
								JOINT LeftHandThumb1
								{
									OFFSET 6.534897 -5.032593 5.900300
									CHANNELS 3 Xrotation Yrotation Zrotation
									JOINT LeftHandThumb2
									{
										OFFSET 3.818176 -2.204422 2.204423
										CHANNELS 3 Xrotation Yrotation Zrotation
										JOINT LeftHandThumb3
										{
											OFFSET 3.252098 -1.877594 1.877601
											CHANNELS 3 Xrotation Yrotation Zrotation
											JOINT LeftHandThumb4
											{
												OFFSET 5.251778 -3.032120 3.032117
												CHANNELS 3 Xrotation Yrotation Zrotation
												End Site
												{
													OFFSET 0.000023 6.780014 0.000000
												}
											}
										}
									}
								}
							}
						}
					}
				}
				JOINT RightShoulder
				{
					OFFSET -12.896300 26.716293 -4.548400
					CHANNELS 3 Xrotation Yrotation Zrotation
					JOINT RightArm
					{
						OFFSET -19.027000 -4.857010 -1.718400
						CHANNELS 3 Xrotation Yrotation Zrotation
						JOINT RightForeArm
						{
							OFFSET -24.179897 0.000000 0.000000
							CHANNELS 3 Xrotation Yrotation Zrotation
							JOINT RightHand
							{
								OFFSET -27.156403 0.000000 0.000000
								CHANNELS 3 Xrotation Yrotation Zrotation
								JOINT RightHandThumb1
								{
									OFFSET -6.591202 -4.852203 5.988100
									CHANNELS 3 Xrotation Yrotation Zrotation
									JOINT RightHandThumb2
									{
										OFFSET -3.818176 -2.204422 2.204423
										CHANNELS 3 Xrotation Yrotation Zrotation
										JOINT RightHandThumb3
										{
											OFFSET -3.252098 -1.877594 1.877601
											CHANNELS 3 Xrotation Yrotation Zrotation
											JOINT RightHandThumb4
											{
												OFFSET -5.251778 -3.032120 3.032117
												CHANNELS 3 Xrotation Yrotation Zrotation
												End Site
												{
													OFFSET -0.000023 6.780014 0.000000
												}
											}
										}
									}
								}
								JOINT RightHandIndex1
								{
									OFFSET -16.029404 0.000000 0.000000
									CHANNELS 3 Xrotation Yrotation Zrotation
									JOINT RightHandIndex2
									{
										OFFSET -5.213303 0.000000 0.000000
										CHANNELS 3 Xrotation Yrotation Zrotation
										JOINT RightHandIndex3
										{
											OFFSET -6.386528 0.000000 0.000000
											CHANNELS 3 Xrotation Yrotation Zrotation
											JOINT RightHandIndex4
											{
												OFFSET -5.189026 0.000000 0.000000
												CHANNELS 3 Xrotation Yrotation Zrotation
												End Site
												{
													OFFSET 0.236702 5.183624 0.001972
												}
											}
										}
									}
								}
							}
						}
					}
				}
			}
		}
	}
	JOINT LeftUpLeg
	{
		OFFSET 14.073000 -7.904099 -1.463000
		CHANNELS 3 Xrotation Yrotation Zrotation
		JOINT LeftLeg
		{
			OFFSET -0.109806 -34.073280 4.093200
			CHANNELS 3 Xrotation Yrotation Zrotation
			JOINT LeftFoot
			{
				OFFSET 0.109806 -29.899420 -6.319000
				CHANNELS 3 Xrotation Yrotation Zrotation
				JOINT LeftToeBase
				{
					OFFSET 1.551100 -14.988700 20.535801
					CHANNELS 3 Xrotation Yrotation Zrotation
					JOINT LeftToe_End
					{
						OFFSET 0.221200 0.570800 13.248301
						CHANNELS 3 Xrotation Yrotation Zrotation
						End Site
						{
							OFFSET 0.000000 13.262435 0.000000
						}
					}
				}
			}
		}
	}
	JOINT RightUpLeg
	{
		OFFSET -13.839300 -7.904099 -1.463000
		CHANNELS 3 Xrotation Yrotation Zrotation
		JOINT RightLeg
		{
			OFFSET 0.109694 -34.073219 4.093300
			CHANNELS 3 Xrotation Yrotation Zrotation
			JOINT RightFoot
			{
				OFFSET -0.109694 -29.899384 -6.319200
				CHANNELS 3 Xrotation Yrotation Zrotation
				JOINT RightToeBase
				{
					OFFSET -1.551100 -14.988700 20.535801
					CHANNELS 3 Xrotation Yrotation Zrotation
					JOINT RightToe_End
					{
						OFFSET -0.221200 0.570900 13.248299
						CHANNELS 3 Xrotation Yrotation Zrotation
						End Site
						{
							OFFSET 0.000000 13.262440 0.000000
						}
					}
				}
			}
		}
	}
}
MOTION
Frames: 4
Frame Time: 0.033333
1.203650 85.913971 1.331313 -0.893584 1.574559 -4.815468 1.286610 -1.206617 2.473110 0.728744 0.264195 5.944687 0.710789 0.781493 5.851996 1.045308 -0.304693 -2.163987 1.584932 0.544179 -8.140493 -0.000000 -0.000000 0.000000 3.582358 -13.764040 -5.044455 4.032787 3.514251 -83.678321 -0.000001 -14.506748 0.000022 -27.592511 3.698844 -9.416222 0.339563 4.671345 -7.844257 0.387033 2.823583 -20.566226 0.034628 0.816835 -10.169819 -0.000000 -0.000000 -0.000000 18.491277 -0.461423 10.916081 1.284062 32.757598 -3.088989 2.117132 9.311165 -0.358615 -0.000000 -0.000002 -0.000000 4.508128 3.324372 5.471578 -1.219626 0.655871 67.345426 -0.000001 17.736784 -0.000005 -11.193151 -9.123239 10.139299 18.491277 0.461421 -10.916081 1.284043 -32.757598 3.088951 2.008700 -8.430478 1.114709 -0.000000 0.000002 -0.000001 0.339565 -4.671355 7.844284 0.387031 -2.823583 20.566275 -0.193124 -0.216347 13.843935 0.000000 -0.000000 0.000003 -17.828539 11.013829 16.760253 23.657014 8.819586 2.278373 -4.171357 3.996531 -10.868453 -0.441961 -0.000005 0.000001 0.000000 0.000000 0.000000 2.389005 -4.083867 10.975175 8.062803 -5.303968 3.191180 -9.627415 1.084238 -8.313321 -0.548656 -0.000003 -0.000001 -0.000000 0.000000 -0.000000 
1.449817 85.953262 1.150274 -1.181261 1.435496 -4.687366 1.441268 -1.340537 2.401857 0.794516 0.235283 5.931272 0.776543 0.751724 5.839185 0.889981 -0.340856 -2.138191 1.133666 0.404117 -8.224244 -0.000000 -0.000000 -0.000000 3.386906 -14.541430 -6.059144 5.039687 0.192572 -80.959830 0.000001 -17.010823 -0.000009 -26.372218 0.413064 -9.810118 0.350677 4.748028 -8.609347 0.413892 2.893697 -21.310540 0.044512 0.883661 -10.835812 -0.000000 -0.000000 -0.000002 18.491279 -0.461421 10.916084 1.284057 32.757608 -3.088985 2.117138 9.311157 -0.358640 0.000001 0.000000 -0.000001 4.394134 4.082660 7.029113 -0.234260 3.590094 65.261167 0.000006 17.586320 -0.000018 -10.940895 -7.427761 11.282281 18.491277 0.461429 -10.916074 1.284048 -32.757618 3.088963 2.008708 -8.430469 1.114728 0.000001 0.000001 -0.000000 0.339565 -4.671355 7.844271 0.387029 -2.823580 20.566248 -0.193124 -0.216348 13.843957 -0.000000 -0.000000 -0.000003 -17.445340 11.015574 16.308697 23.519094 9.151037 2.409808 -4.119037 3.990442 -10.734354 -0.460958 -0.000002 0.000002 0.000000 0.000002 0.000000 2.296481 -4.056849 10.602661 8.486130 -5.093432 3.195860 -9.665741 0.934435 -8.128435 -0.592867 -0.000003 0.000001 -0.000000 0.000000 -0.000000 
1.741468 85.979919 0.933256 -1.514179 1.396883 -4.560319 1.699689 -1.379238 2.348959 0.902436 0.230198 5.918852 0.884560 0.745467 5.827211 0.653534 -0.407668 -2.110208 0.510711 0.131739 -8.258004 0.000000 -0.000000 0.000000 3.187926 -15.568361 -6.781295 5.632253 -3.901328 -78.280156 0.000001 -20.863436 0.000012 -26.510227 -2.635364 -11.372706 0.386716 4.959013 -10.723709 0.492920 3.085744 -23.369543 0.076025 1.068595 -12.685530 0.000001 0.000000 0.000004 18.491274 -0.461431 10.916072 1.284048 32.757618 -3.088971 2.117141 9.311156 -0.358622 0.000000 0.000001 -0.000000 4.302024 4.983965 8.172975 2.191164 9.164569 61.835472 0.000002 18.303049 -0.000036 -12.081336 -7.417320 15.925761 18.491282 0.461425 -10.916072 1.284036 -32.757611 3.088950 2.008696 -8.430473 1.114690 0.000000 -0.000002 0.000002 0.339566 -4.671352 7.844286 0.387029 -2.823580 20.566191 -0.193124 -0.216347 13.843954 0.000001 -0.000001 0.000004 -17.097398 10.964348 15.760455 23.447194 9.356347 2.616544 -4.073453 4.082413 -10.562669 -0.448567 0.000012 0.000004 0.000000 -0.000000 0.000000 2.178313 -4.056533 10.201806 9.034236 -4.936190 3.186179 -9.762065 0.757533 -7.888340 -0.642031 0.000003 -0.000000 0.000000 0.000000 -0.000000 
2.086794 85.998642 0.673048 -1.896432 1.479113 -4.444342 2.062414 -1.321417 2.320973 1.048779 0.249233 5.911327 1.031059 0.763099 5.820030 0.352882 -0.501951 -2.078689 -0.271363 -0.261223 -8.221282 -0.000000 -0.000000 0.000000 2.950342 -16.883835 -7.437688 5.746329 -7.625258 -75.153398 -0.000004 -25.527598 0.000012 -27.504427 -3.531831 -14.084786 0.455879 5.274620 -13.916747 0.625372 3.370296 -26.482641 0.135306 1.347418 -15.496731 -0.000002 -0.000000 0.000001 18.491279 -0.461425 10.916072 1.284043 32.757615 -3.088956 2.117131 9.311164 -0.358620 -0.000001 -0.000001 0.000000 4.186652 6.000957 9.095259 5.431948 15.108795 57.182470 0.000001 19.321476 0.000004 -12.810902 -9.698947 22.963589 18.491281 0.461428 -10.916082 1.284044 -32.757611 3.088959 2.008717 -8.430477 1.114734 -0.000001 0.000001 0.000001 0.339565 -4.671355 7.844264 0.387030 -2.823575 20.566224 -0.193122 -0.216348 13.843955 -0.000001 0.000001 0.000000 -16.797708 10.890526 15.136217 23.433512 9.405144 2.875898 -4.028431 4.245728 -10.320922 -0.424133 -0.000005 -0.000002 0.000000 -0.000002 -0.000000 2.059535 -4.058267 9.778371 9.648792 -4.873422 3.164132 -9.881564 0.554269 -7.583743 -0.710157 0.000002 -0.000003 0.000000 -0.000000 -0.000000 
